<svg id="visual" viewBox="0 0 900 600" width="900" height="600" xmlns="http://www.w3.org/2000/svg" xmlns:xlink="http://www.w3.org/1999/xlink" version="1.1"><path d="M0 413L129 363L257 424L386 377L514 418L643 425L771 414L900 361L900 601L771 601L643 601L514 601L386 601L257 601L129 601L0 601Z" fill="#a6cabd"></path><path d="M0 463L129 429L257 431L386 423L514 471L643 424L771 466L900 469L900 601L771 601L643 601L514 601L386 601L257 601L129 601L0 601Z" fill="#97beb0"></path><path d="M0 487L129 494L257 501L386 480L514 474L643 486L771 500L900 479L900 601L771 601L643 601L514 601L386 601L257 601L129 601L0 601Z" fill="#89b3a3"></path><path d="M0 526L129 494L257 518L386 530L514 491L643 490L771 515L900 500L900 601L771 601L643 601L514 601L386 601L257 601L129 601L0 601Z" fill="#7aa896"></path><path d="M0 544L129 551L257 563L386 539L514 561L643 567L771 562L900 564L900 601L771 601L643 601L514 601L386 601L257 601L129 601L0 601Z" fill="#6c9d89"></path></svg>