<svg id="visual" viewBox="0 0 900 600" width="900" height="600" xmlns="http://www.w3.org/2000/svg" xmlns:xlink="http://www.w3.org/1999/xlink" version="1.1"><path d="M0 377L21.5 384.3C43 391.7 86 406.3 128.8 404.8C171.7 403.3 214.3 385.7 257.2 388.7C300 391.7 343 415.3 385.8 421.5C428.7 427.7 471.3 416.3 514.2 407.7C557 399 600 393 642.8 394.7C685.7 396.3 728.3 405.7 771.2 402.2C814 398.7 857 382.3 878.5 374.2L900 366L900 601L878.5 601C857 601 814 601 771.2 601C728.3 601 685.7 601 642.8 601C600 601 557 601 514.2 601C471.3 601 428.7 601 385.8 601C343 601 300 601 257.2 601C214.3 601 171.7 601 128.8 601C86 601 43 601 21.5 601L0 601Z" fill="#000000"></path><path d="M0 476L21.5 469.5C43 463 86 450 128.8 445.7C171.7 441.3 214.3 445.7 257.2 451.2C300 456.7 343 463.3 385.8 467.7C428.7 472 471.3 474 514.2 463.2C557 452.3 600 428.7 642.8 428.3C685.7 428 728.3 451 771.2 462.5C814 474 857 474 878.5 474L900 474L900 601L878.5 601C857 601 814 601 771.2 601C728.3 601 685.7 601 642.8 601C600 601 557 601 514.2 601C471.3 601 428.7 601 385.8 601C343 601 300 601 257.2 601C214.3 601 171.7 601 128.8 601C86 601 43 601 21.5 601L0 601Z" fill="#151515"></path><path d="M0 496L21.5 487.7C43 479.3 86 462.7 128.8 462.2C171.7 461.7 214.3 477.3 257.2 479C300 480.7 343 468.3 385.8 468.5C428.7 468.7 471.3 481.3 514.2 490.2C557 499 600 504 642.8 494.5C685.7 485 728.3 461 771.2 451.2C814 441.3 857 445.7 878.5 447.8L900 450L900 601L878.5 601C857 601 814 601 771.2 601C728.3 601 685.7 601 642.8 601C600 601 557 601 514.2 601C471.3 601 428.7 601 385.8 601C343 601 300 601 257.2 601C214.3 601 171.7 601 128.8 601C86 601 43 601 21.5 601L0 601Z" fill="#232323"></path><path d="M0 504L21.5 509C43 514 86 524 128.8 530.3C171.7 536.7 214.3 539.3 257.2 531.8C300 524.3 343 506.7 385.8 497.5C428.7 488.3 471.3 487.7 514.2 493.5C557 499.3 600 511.7 642.8 513.5C685.7 515.3 728.3 506.7 771.2 503C814 499.3 857 500.7 878.5 501.3L900 502L900 601L878.5 601C857 601 814 601 771.2 601C728.3 601 685.7 601 642.8 601C600 601 557 601 514.2 601C471.3 601 428.7 601 385.8 601C343 601 300 601 257.2 601C214.3 601 171.7 601 128.8 601C86 601 43 601 21.5 601L0 601Z" fill="#313131"></path><path d="M0 561L21.5 563C43 565 86 569 128.8 568.8C171.7 568.7 214.3 564.3 257.2 564C300 563.7 343 567.3 385.8 568.7C428.7 570 471.3 569 514.2 562.5C557 556 600 544 642.8 541.7C685.7 539.3 728.3 546.7 771.2 552.3C814 558 857 562 878.5 564L900 566L900 601L878.5 601C857 601 814 601 771.2 601C728.3 601 685.7 601 642.8 601C600 601 557 601 514.2 601C471.3 601 428.7 601 385.8 601C343 601 300 601 257.2 601C214.3 601 171.7 601 128.8 601C86 601 43 601 21.5 601L0 601Z" fill="#404040"></path></svg>